<svg xmlns="http://www.w3.org/2000/svg" xmlns:svg="http://www.w3.org/2000/svg" id="svg3580" width="701.686" height="116.26" version="1.1"><g id="layer1" transform="translate(-15.157,-449.37523)"><path id="path348" d="m 709.87028,468.43138 c 0.87157,0 1.6591,-0.0619 1.6591,-1.10163 0,-0.84502 -0.77424,-1.0043 -1.48655,-1.0043 l -1.41132,0 0,2.10593 1.23877,0 z m -1.23877,3.82696 -1.02201,0 0,-6.80888 2.58817,0 c 1.606,0 2.40236,0.59284 2.40236,1.93338 0,1.22994 -0.75653,1.752 -1.76968,1.8803 l 1.94222,2.9952 -1.15914,0 -1.79623,-2.94211 -1.18569,0 0,2.94211 z m 1.25205,1.51308 c 2.66781,0 4.77373,-2.09265 4.77373,-4.92858 0,-2.80054 -2.10592,-4.91089 -4.77373,-4.91089 -2.68993,0 -4.80472,2.11035 -4.80472,4.91089 0,2.83593 2.11479,4.92858 4.80472,4.92858 m -5.98597,-4.92858 c 0,-3.39338 2.73859,-5.8975 5.98597,-5.8975 3.21642,0 5.95943,2.50412 5.95943,5.8975 0,3.4155 -2.74301,5.91519 -5.95943,5.91519 -3.24738,0 -5.98597,-2.49969 -5.98597,-5.91519 m -272.46771,95.792 -3.62344,0 2.68991,-4.84453 -6.95488,-12.75503 3.80926,0 4.97284,9.96777 4.6941,-9.96777 3.49957,0 -9.08736,17.59956 z M 414.1338,548.68507 c -2.76513,0 -4.58792,1.76968 -4.58792,4.73834 0,2.96423 1.6989,4.66756 4.58792,4.66756 2.81823,0 4.59234,-1.84933 4.59234,-4.71623 0,-2.91999 -1.67235,-4.68967 -4.59234,-4.68967 m 0.91582,11.56492 c -2.94212,0 -4.61447,-1.04854 -5.60992,-2.38908 0,0.41145 -0.0929,1.54848 -0.11946,1.90684 l -3.16773,0 c 0.0221,-0.69018 0.0929,-2.12805 0.0929,-2.69435 l 0,-15.62194 3.30048,0 0,7.561 c 1.21666,-1.39363 2.81381,-2.45544 5.53028,-2.45544 3.87562,0 7.12743,2.38023 7.12743,6.7956 0,4.20744 -3.26951,6.89737 -7.15397,6.89737 m 277.76263,0.0686 -18.40037,-27.04972 0,27.04972 -5.6984,0 0,-32.65521 8.67148,0 18.41805,27.04971 0,-27.04971 5.69841,0 0,32.65521 -8.68917,0 z m -49.51727,-27.95182 -7.64507,15.64407 15.25032,0 -7.60525,-15.64407 z m 13.61776,27.95226 -3.80041,-7.82203 -19.71877,0 -3.84465,7.82203 -6.78234,0 16.95363,-32.65521 7.51676,0 16.86072,32.65521 -7.18494,0 z m -44.91518,-4.4e-4 0,-28.53183 -13.34346,28.53183 -6.91949,0 -13.33462,-28.53183 0,28.53183 -5.65416,0 0,-32.65521 10.03857,0 12.70637,27.40807 12.66214,-27.40807 9.99432,0 0,32.65521 -6.14967,0 z m -61.1313,-28.08454 -9.41475,0 0,9.6802 9.41475,0 c 5.01265,0 7.14071,-1.36266 7.14071,-4.88877 0,-3.38895 -2.12806,-4.79143 -7.14071,-4.79143 m 8.31312,28.08498 c -0.40702,-1.76084 -0.81405,-4.20744 -1.17241,-5.60992 l -0.99546,-4.03047 c -0.95121,-3.74289 -2.30944,-4.20301 -7.14954,-4.20301 l -8.41046,0 0,13.8434 -6.33106,0 0,-32.65521 17.23235,0 c 8.54762,0 12.1622,3.4332 12.1622,8.77767 0,5.83555 -6.33106,7.50791 -7.82646,7.73354 3.93758,0.31412 6.10545,1.40248 6.97259,6.46822 l 1.16799,5.60107 c 0.31412,1.76084 0.77424,3.44204 1.08394,4.07471 l -6.73368,0 z m -49.47965,-27.95226 -7.63621,15.64407 15.23704,0 -7.60083,-15.64407 z m 13.61776,27.95226 -3.8004,-7.82203 -19.71878,0 -3.8358,7.82203 -6.79118,0 16.95805,-32.65521 7.50791,0 16.87401,32.65521 -7.19381,0 z m -45.08728,-4.4e-4 0,-14.4274 -19.31174,0 0,14.4274 -6.33107,0 0,-32.65521 6.33107,0 0,13.48504 19.31174,0 0,-13.48504 6.33107,0 0,32.65521 -6.33107,0 z m -127.12968,-42.80573 40.00827,-67.13763 2.49526,0 -40.13215,67.13763 -2.37138,0 z m 305.8485,-49.79776 13.04704,0 0,7.51676 0.19467,0 c 2.49084,-5.22501 7.34421,-8.33966 12.39224,-8.33966 11.55167,0 19.36927,4.77374 19.36927,17.23236 l 0,33.30557 -13.02934,0 0,-29.53171 c 0,-4.41538 -0.57957,-9.63596 -9.42803,-9.63596 -7.92378,0 -9.49881,4.31362 -9.49881,8.34409 l 0,30.82358 -13.04705,0 0,-49.71503 m -42.83757,15.77015 c -1.03969,1.93339 -2.43332,5.5878 -2.43332,9.7156 0,4.13666 1.39363,7.79991 2.43332,9.72445 2.42006,4.13223 6.04792,5.59665 9.31742,5.59665 3.26066,0 6.89295,-1.46442 9.30857,-5.59665 1.03085,-1.92454 2.43333,-5.58779 2.43333,-9.72445 0,-4.1278 -1.40248,-7.78221 -2.43333,-9.7156 -2.41562,-4.12337 -6.04791,-5.58779 -9.30857,-5.58779 -3.2695,0 -6.89736,1.46442 -9.31742,5.58779 m -8.11402,29.99183 c -5.01265,-4.49501 -7.4327,-12.18874 -7.4327,-20.27623 0,-8.06536 2.42005,-15.75909 7.4327,-20.25853 4.47289,-4.03931 10.91456,-6.04791 17.43145,-6.04791 6.5213,0 12.9497,2.0086 17.43145,6.04791 5.00823,4.49944 7.4504,12.19317 7.4504,20.25853 0,8.08749 -2.44217,15.78122 -7.4504,20.27623 -4.48174,4.02605 -10.91014,6.05677 -17.43145,6.05677 -6.51689,0 -12.95856,-2.03072 -17.43145,-6.05677 M 557.2752,483.58701 c -0.92024,1.92896 -2.23866,5.59222 -2.23866,9.72003 0,4.12337 1.31842,7.78663 2.23866,9.72002 2.23423,4.12338 5.68071,5.59222 8.75996,5.59222 2.98193,0 6.41513,-1.46884 8.67149,-5.59222 0.92466,-1.93339 2.23423,-5.59665 2.23423,-9.72002 0,-4.12781 -1.30957,-7.79107 -2.23423,-9.72003 -2.25636,-4.11895 -5.68956,-5.59664 -8.67149,-5.59664 -3.07925,0 -6.52573,1.47769 -8.75996,5.59664 m 32.69503,34.10636 -13.02935,0 0,-5.22944 -0.19467,0 c -3.53938,5.14095 -8.65377,6.88852 -12.77715,7.06992 -9.10507,0.35393 -14.32123,-3.22526 -18.24551,-11.48087 -2.044,-4.48616 -3.54381,-8.96791 -3.8181,-13.83898 -0.28315,-4.85337 0.65477,-10.08723 3.25623,-16.04224 4.27821,-9.63154 12.57807,-10.99863 17.32525,-11.27735 8.48567,-0.36721 12.40996,3.3978 14.25928,7.60524 l 0.19467,0 0,-23.92179 13.02935,0 0,67.11551 m -81.24028,-49.97827 13.02933,0 0,9.63154 0.21238,0 c 0.83616,-2.94211 1.48653,-4.66313 6.05675,-7.79106 2.22982,-1.65024 5.19848,-3.29605 9.29972,-2.66338 l 0,13.10898 c -5.58779,-0.64152 -13.98055,-1.37594 -15.56884,9.44572 l 0,27.98323 -13.02934,0 0,-49.71503 m -24.22264,26.3237 c -3.73404,2.20327 -8.76439,2.01745 -12.13122,2.66339 -3.99066,0.72999 -6.7912,4.02604 -5.67186,8.05651 0.73442,2.94654 3.07483,5.04362 8.6582,4.14108 7.74683,-1.19454 9.14488,-6.52131 9.14488,-12.0162 l 0,-2.84478 z m 1.47769,23.39088 c -0.93794,-1.20339 -1.47769,-3.22083 -1.38921,-4.96398 -4.57465,4.20744 -8.56972,7.06549 -16.21037,7.06549 -10.26862,0 -15.29453,-5.68955 -14.90964,-15.32109 0.28315,-6.97258 3.07484,-13.7505 14.62649,-15.67946 4.84011,-0.18582 10.05185,-1.27418 13.13995,-2.2829 2.3183,-0.83618 3.43763,-3.22526 3.26508,-5.60549 0,-3.11466 -2.61471,-4.49502 -8.56972,-4.49502 -7.47252,0 -8.39276,4.49502 -8.59185,8.07422 l -12.29492,0 c 0.18582,-15.86528 13.98055,-17.3297 20.88677,-17.3297 4.99937,0 9.38379,0.82291 11.91001,1.83163 5.03477,2.01303 9.03427,6.05234 9.03427,13.93189 l 0,27.14705 c -0.0929,2.20769 1.22109,4.40653 2.89345,5.87095 l 0,1.75641 -13.79032,0 m -68.78388,-66.85403 0,36.49102 0.19025,0 16.29442,-19.35157 14.92291,0 -17.05096,18.98878 18.15259,30.72625 -15.27242,0 -11.82153,-21.28053 -5.41526,5.76477 0,15.51576 -13.03819,0 0,-66.85448 13.03819,0 z m -121.49189,17.13945 13.06032,0 0,7.51676 0.16812,0 c 2.53508,-5.22501 7.36633,-8.33966 12.40995,-8.33966 11.55165,0 19.36926,4.77374 19.36926,17.23236 l 0,33.30557 -13.03819,0 0,-29.53171 c 0,-4.41538 -0.57515,-9.63596 -9.4236,-9.63596 -7.91494,0 -9.48554,4.31362 -9.48554,8.34409 l 0,30.82358 -13.06032,0 0,-49.71503 m -24.32085,26.3237 c -3.73405,2.20327 -8.76439,2.01745 -12.10911,2.66339 -4.01719,0.72999 -6.8133,4.02604 -5.68955,8.05651 0.74327,2.94654 3.07041,5.04362 8.66706,4.14108 7.73354,-1.19454 9.1316,-6.52131 9.1316,-12.0162 l 0,-2.84478 z m 1.48654,23.39088 c -0.93351,-1.20339 -1.48654,-3.22083 -1.40248,-4.96398 -4.57023,4.20744 -8.5653,7.06549 -16.21036,7.06549 -10.24209,0 -15.26801,-5.68955 -14.9008,-15.32109 0.28315,-6.97258 3.07042,-13.7505 14.62207,-15.67946 4.85338,-0.18582 10.06954,-1.27418 13.14437,-2.2829 2.336,-0.83618 3.4509,-3.22526 3.26066,-5.60549 0,-3.11466 -2.61914,-4.49502 -8.5653,-4.49502 -7.47252,0 -8.39718,4.49502 -8.58742,8.07422 l -12.30378,0 c 0.19025,-15.86528 13.99383,-17.3297 20.8912,-17.3297 5.02149,0 9.40148,0.82291 11.91444,1.83163 5.04361,2.01303 9.03869,6.05234 9.03869,13.93189 l 0,27.14705 c -0.0929,2.20769 1.20781,4.40653 2.87575,5.87095 l 0,1.75641 -13.77704,0 m -111.54446,8.9e-4 0,-49.71503 13.05146,0 0,7.4327 0.16812,0 c 4.10568,-5.88422 7.83973,-9.27317 15.48479,-8.2556 6.41513,0.8229 8.20252,3.03059 11.91444,7.23803 3.16332,-4.39325 7.08761,-8.43257 17.69248,-7.23803 10.08723,1.46442 12.86565,8.06536 12.86565,16.04667 l 0,34.49126 -13.03819,0 0,-34.21254 c -0.19025,-3.67653 -3.4332,-5.04804 -6.52131,-5.22501 -6.98143,-0.46454 -9.48997,5.59222 -9.48997,8.98118 l 0,30.45637 -13.06031,0 0,-34.21254 c -0.7477,-3.49071 -3.07041,-5.14095 -7.16725,-5.22501 -4.57465,-0.0973 -8.84845,2.84478 -8.84845,8.98118 l 0,30.45637 -13.05146,0 m -37.66211,-49.71547 13.05146,0 0,9.63154 0.1814,0 c 0.83175,-2.94211 1.49539,-4.66313 6.05234,-7.79106 2.23423,-1.65024 5.22059,-3.29605 9.31742,-2.66338 l 0,13.10898 c -5.58337,-0.64152 -13.98056,-1.37594 -15.55116,9.44572 l 0,27.98323 -13.05146,0 0,-49.71503 m -24.21998,26.3237 c -3.73404,2.20327 -8.75996,2.01745 -12.1268,2.66339 -3.9995,0.72999 -6.79119,4.02604 -5.67186,8.05651 0.73,2.94654 3.07042,5.04362 8.64936,4.14108 7.75567,-1.19454 9.1493,-6.52131 9.1493,-12.0162 l 0,-2.84478 z m 1.48212,23.39088 c -0.94236,-1.20339 -1.48212,-3.22083 -1.39363,-4.96398 -4.55696,4.20744 -8.56973,7.06549 -16.21479,7.06549 -10.24208,0 -15.2857,-5.68955 -14.91849,-15.32109 0.30085,-6.97258 3.08811,-13.7505 14.64419,-15.67946 4.84895,-0.18582 10.06954,-1.27418 13.13995,-2.2829 2.31829,-0.83618 3.4332,-3.22526 3.26065,-5.60549 0,-3.11466 -2.61472,-4.49502 -8.56972,-4.49502 -7.4681,0 -8.39276,4.49502 -8.583,8.07422 l -12.30377,0 c 0.19466,-15.86528 13.97613,-17.3297 20.88677,-17.3297 5.02592,0 9.4059,0.82291 11.91886,1.83163 5.03035,2.01303 9.03869,6.05234 9.03869,13.93189 l 0,27.14705 c -0.0841,2.20769 1.20782,4.40653 2.8846,5.87095 l 0,1.75641 -13.79031,0 M 16.157,450.57565 l 13.05147,0 0,23.75367 0.17697,0 c 2.51296,-4.32247 7.36634,-7.43712 12.40553,-7.43712 11.55165,0 19.36926,4.77374 19.36926,17.23236 l 0,33.30557 -13.03377,0 0,-29.53171 c 0,-4.41538 -0.57515,-9.63596 -9.4236,-9.63596 -7.92379,0 -9.49439,4.31362 -9.49439,8.34409 l 0,30.82358 -13.05147,0 0,-66.85448 m 334.94353,66.93721 40.00827,-67.13763 2.49526,0 -40.13215,67.13763 -2.37138,0 z m 305.8485,-49.79776 13.04704,0 0,7.51676 0.19467,0 c 2.49084,-5.22501 7.34421,-8.33966 12.39224,-8.33966 11.55167,0 19.36927,4.77374 19.36927,17.23236 l 0,33.30557 -13.02934,0 0,-29.53171 c 0,-4.41538 -0.57957,-9.63596 -9.42803,-9.63596 -7.92378,0 -9.49881,4.31362 -9.49881,8.34409 l 0,30.82358 -13.04705,0 0,-49.71503 m -42.83757,15.77015 c -1.03969,1.93339 -2.43332,5.5878 -2.43332,9.7156 0,4.13666 1.39363,7.79991 2.43332,9.72445 2.42006,4.13223 6.04792,5.59665 9.31742,5.59665 3.26066,0 6.89295,-1.46442 9.30857,-5.59665 1.03085,-1.92454 2.43333,-5.58779 2.43333,-9.72445 0,-4.1278 -1.40248,-7.78221 -2.43333,-9.7156 -2.41562,-4.12337 -6.04791,-5.58779 -9.30857,-5.58779 -3.2695,0 -6.89736,1.46442 -9.31742,5.58779 m -8.11402,29.99183 c -5.01265,-4.49501 -7.4327,-12.18874 -7.4327,-20.27623 0,-8.06536 2.42005,-15.75909 7.4327,-20.25853 4.47289,-4.03931 10.91456,-6.04791 17.43145,-6.04791 6.5213,0 12.9497,2.0086 17.43145,6.04791 5.00823,4.49944 7.4504,12.19317 7.4504,20.25853 0,8.08749 -2.44217,15.78122 -7.4504,20.27623 -4.48174,4.02605 -10.91014,6.05677 -17.43145,6.05677 -6.51689,0 -12.95856,-2.03072 -17.43145,-6.05677 M 557.2752,483.58701 c -0.92024,1.92896 -2.23866,5.59222 -2.23866,9.72003 0,4.12337 1.31842,7.78663 2.23866,9.72002 2.23423,4.12338 5.68071,5.59222 8.75996,5.59222 2.98193,0 6.41513,-1.46884 8.67149,-5.59222 0.92466,-1.93339 2.23423,-5.59665 2.23423,-9.72002 0,-4.12781 -1.30957,-7.79107 -2.23423,-9.72003 -2.25636,-4.11895 -5.68956,-5.59664 -8.67149,-5.59664 -3.07925,0 -6.52573,1.47769 -8.75996,5.59664 m 32.69503,34.10636 -13.02935,0 0,-5.22944 -0.19467,0 c -3.53938,5.14095 -8.65377,6.88852 -12.77715,7.06992 -9.10507,0.35393 -14.32123,-3.22526 -18.24551,-11.48087 -2.044,-4.48616 -3.54381,-8.96791 -3.8181,-13.83898 -0.28315,-4.85337 0.65477,-10.08723 3.25623,-16.04224 4.27821,-9.63154 12.57807,-10.99863 17.32525,-11.27735 8.48567,-0.36721 12.40996,3.3978 14.25928,7.60524 l 0.19467,0 0,-23.92179 13.02935,0 0,67.11551 m -81.24028,-49.97827 13.02933,0 0,9.63154 0.21238,0 c 0.83616,-2.94211 1.48653,-4.66313 6.05675,-7.79106 2.22982,-1.65024 5.19848,-3.29605 9.29972,-2.66338 l 0,13.10898 c -5.58779,-0.64152 -13.98055,-1.37594 -15.56884,9.44572 l 0,27.98323 -13.02934,0 0,-49.71503 m -24.22264,26.3237 c -3.73404,2.20327 -8.76439,2.01745 -12.13122,2.66339 -3.99066,0.72999 -6.7912,4.02604 -5.67186,8.05651 0.73442,2.94654 3.07483,5.04362 8.6582,4.14108 7.74683,-1.19454 9.14488,-6.52131 9.14488,-12.0162 l 0,-2.84478 z m 1.47769,23.39088 c -0.93794,-1.20339 -1.47769,-3.22083 -1.38921,-4.96398 -4.57465,4.20744 -8.56972,7.06549 -16.21037,7.06549 -10.26862,0 -15.29453,-5.68955 -14.90964,-15.32109 0.28315,-6.97258 3.07484,-13.7505 14.62649,-15.67946 4.84011,-0.18582 10.05185,-1.27418 13.13995,-2.2829 2.3183,-0.83618 3.43763,-3.22526 3.26508,-5.60549 0,-3.11466 -2.61471,-4.49502 -8.56972,-4.49502 -7.47252,0 -8.39276,4.49502 -8.59185,8.07422 l -12.29492,0 c 0.18582,-15.86528 13.98055,-17.3297 20.88677,-17.3297 4.99937,0 9.38379,0.82291 11.91001,1.83163 5.03477,2.01303 9.03427,6.05234 9.03427,13.93189 l 0,27.14705 c -0.0929,2.20769 1.22109,4.40653 2.89345,5.87095 l 0,1.75641 -13.79032,0 m -68.78388,-66.85403 0,36.49102 0.19025,0 16.29442,-19.35157 14.92291,0 -17.05096,18.98878 18.15259,30.72625 -15.27242,0 -11.82153,-21.28053 -5.41526,5.76477 0,15.51576 -13.03819,0 0,-66.85448 13.03819,0 z m -121.49189,17.13945 13.06032,0 0,7.51676 0.16812,0 c 2.53508,-5.22501 7.36633,-8.33966 12.40995,-8.33966 11.55165,0 19.36926,4.77374 19.36926,17.23236 l 0,33.30557 -13.03819,0 0,-29.53171 c 0,-4.41538 -0.57515,-9.63596 -9.4236,-9.63596 -7.91494,0 -9.48554,4.31362 -9.48554,8.34409 l 0,30.82358 -13.06032,0 0,-49.71503 m -24.32085,26.3237 c -3.73405,2.20327 -8.76439,2.01745 -12.10911,2.66339 -4.01719,0.72999 -6.8133,4.02604 -5.68955,8.05651 0.74327,2.94654 3.07041,5.04362 8.66706,4.14108 7.73354,-1.19454 9.1316,-6.52131 9.1316,-12.0162 l 0,-2.84478 z m 1.48654,23.39088 c -0.93351,-1.20339 -1.48654,-3.22083 -1.40248,-4.96398 -4.57023,4.20744 -8.5653,7.06549 -16.21036,7.06549 -10.24209,0 -15.26801,-5.68955 -14.9008,-15.32109 0.28315,-6.97258 3.07042,-13.7505 14.62207,-15.67946 4.85338,-0.18582 10.06954,-1.27418 13.14437,-2.2829 2.336,-0.83618 3.4509,-3.22526 3.26066,-5.60549 0,-3.11466 -2.61914,-4.49502 -8.5653,-4.49502 -7.47252,0 -8.39718,4.49502 -8.58742,8.07422 l -12.30378,0 c 0.19025,-15.86528 13.99383,-17.3297 20.8912,-17.3297 5.02149,0 9.40148,0.82291 11.91444,1.83163 5.04361,2.01303 9.03869,6.05234 9.03869,13.93189 l 0,27.14705 c -0.0929,2.20769 1.20781,4.40653 2.87575,5.87095 l 0,1.75641 -13.77704,0 m -111.54446,8.9e-4 0,-49.71503 13.05146,0 0,7.4327 0.16812,0 c 4.10568,-5.88422 7.83973,-9.27317 15.48479,-8.2556 6.41513,0.8229 8.20252,3.03059 11.91444,7.23803 3.16332,-4.39325 7.08761,-8.43257 17.69248,-7.23803 10.08723,1.46442 12.86565,8.06536 12.86565,16.04667 l 0,34.49126 -13.03819,0 0,-34.21254 c -0.19025,-3.67653 -3.4332,-5.04804 -6.52131,-5.22501 -6.98143,-0.46454 -9.48997,5.59222 -9.48997,8.98118 l 0,30.45637 -13.06031,0 0,-34.21254 c -0.7477,-3.49071 -3.07041,-5.14095 -7.16725,-5.22501 -4.57465,-0.0973 -8.84845,2.84478 -8.84845,8.98118 l 0,30.45637 -13.05146,0 m -37.66211,-49.71547 13.05146,0 0,9.63154 0.1814,0 c 0.83175,-2.94211 1.49539,-4.66313 6.05234,-7.79106 2.23423,-1.65024 5.22059,-3.29605 9.31742,-2.66338 l 0,13.10898 c -5.58337,-0.64152 -13.98056,-1.37594 -15.55116,9.44572 l 0,27.98323 -13.05146,0 0,-49.71503 m -24.21998,26.3237 c -3.73404,2.20327 -8.75996,2.01745 -12.1268,2.66339 -3.9995,0.72999 -6.79119,4.02604 -5.67186,8.05651 0.73,2.94654 3.07042,5.04362 8.64936,4.14108 7.75567,-1.19454 9.1493,-6.52131 9.1493,-12.0162 l 0,-2.84478 z m 1.48212,23.39088 c -0.94236,-1.20339 -1.48212,-3.22083 -1.39363,-4.96398 -4.55696,4.20744 -8.56973,7.06549 -16.21479,7.06549 -10.24208,0 -15.2857,-5.68955 -14.91849,-15.32109 0.30085,-6.97258 3.08811,-13.7505 14.64419,-15.67946 4.84895,-0.18582 10.06954,-1.27418 13.13995,-2.2829 2.31829,-0.83618 3.4332,-3.22526 3.26065,-5.60549 0,-3.11466 -2.61472,-4.49502 -8.56972,-4.49502 -7.4681,0 -8.39276,4.49502 -8.583,8.07422 l -12.30377,0 c 0.19466,-15.86528 13.97613,-17.3297 20.88677,-17.3297 5.02592,0 9.4059,0.82291 11.91886,1.83163 5.03035,2.01303 9.03869,6.05234 9.03869,13.93189 l 0,27.14705 c -0.0841,2.20769 1.20782,4.40653 2.8846,5.87095 l 0,1.75641 -13.79031,0 M 16.157,450.57565 l 13.05147,0 0,23.75367 0.17697,0 c 2.51296,-4.32247 7.36634,-7.43712 12.40553,-7.43712 11.55165,0 19.36926,4.77374 19.36926,17.23236 l 0,33.30557 -13.03377,0 0,-29.53171 c 0,-4.41538 -0.57515,-9.63596 -9.4236,-9.63596 -7.92379,0 -9.49439,4.31362 -9.49439,8.34409 l 0,30.82358 -13.05147,0 0,-66.85448" style="fill:#231f20;fill-opacity:1;fill-rule:nonzero;stroke:none"/></g></svg>