<?xml version="1.0" encoding="UTF-8"?>
<!DOCTYPE svg PUBLIC "-//W3C//DTD SVG 1.1//EN" "http://www.w3.org/Graphics/SVG/1.1/DTD/svg11.dtd">
<!-- Creator: CorelDRAW 2019 (64-Bit) -->
<svg xmlns="http://www.w3.org/2000/svg" xml:space="preserve" width="180mm" height="200mm" version="1.1" style="shape-rendering:geometricPrecision; text-rendering:geometricPrecision; image-rendering:optimizeQuality; fill-rule:evenodd; clip-rule:evenodd"
viewBox="0 0 17984.81 19983.14"
 xmlns:xlink="http://www.w3.org/1999/xlink"
 xmlns:xodm="http://www.corel.com/coreldraw/odm/2003">
 <defs>
  <style type="text/css">
   <![CDATA[
    .fil0 {fill:white}
   ]]>
  </style>
 </defs>
 <g id="Layer_x0020_1">
  <metadata id="CorelCorpID_0Corel-Layer"/>
  <path id="homepage-hot-offers.svg" class="fil0" d="M13451.87 4201.59c0,0 1184.3,2254.5 -411.91,3586.71 -51.5,-2203.28 -2059.66,-7070.96 -5612.56,-7788.3 463.44,2254.51 308.97,7532.12 -4067.8,9376.69 257.45,-1024.76 360.44,-2613.16 -772.37,-3740.44 -411.93,3381.77 -2780.52,5994.94 -2574.56,8300.69 257.45,4457.77 4479.74,6046.19 4479.74,6046.19 0,0 -411.92,-2613.19 -257.45,-3945.4 154.47,-1332.22 2420.1,-3125.56 2677.54,-5021.4 1390.27,409.92 1132.81,3330.53 1132.81,3330.53 0,0 2265.62,-3637.97 1390.26,-5533.8 5973,3740.44 3449.93,10760.14 3449.93,10760.14 0,0 4943.16,-2049.53 5097.63,-6917.22 102.98,-4867.69 -4531.24,-8454.4 -4531.24,-8454.4z"/>
 </g>
</svg>
