<svg xmlns="http://www.w3.org/2000/svg" fill="#fe873c" viewBox="0 0 54 60"><path d="M40.3897 12.6154C40.3897 12.6154 43.9456 19.3846 39.1529 23.3846C38.9983 16.7692 32.9687 2.15382 22.301 -3.05176e-05C23.6925 6.7692 23.2287 22.6154 10.0873 28.1538C10.8603 25.0769 11.1695 20.3077 7.76824 16.923C6.5314 27.0769 -0.580392 34.923 0.0380253 41.8461C0.811047 55.2307 13.4886 60 13.4886 60C13.4886 60 12.2518 52.1538 12.7156 48.1538C13.1794 44.1538 19.982 38.7692 20.755 33.0769C24.9293 34.3077 24.1563 43.0769 24.1563 43.0769C24.1563 43.0769 30.9589 32.1538 28.3306 26.4615C46.2647 37.6923 38.6891 58.7692 38.6891 58.7692C38.6891 58.7692 53.5311 52.6154 53.9949 38C54.3041 23.3846 40.3897 12.6154 40.3897 12.6154Z"/></svg>